<svg xmlns="http://www.w3.org/2000/svg" width="14" height="14" viewBox="0 0 14 14" fill="none">
    <g clip-path="url(#clip0_17012_232197)">
        <path fill-rule="evenodd" clip-rule="evenodd" d="M6.99967 0.583252C3.45585 0.583252 0.583008 3.45609 0.583008 6.99992C0.583008 10.5437 3.45585 13.4166 6.99967 13.4166C10.5435 13.4166 13.4163 10.5437 13.4163 6.99992C13.4163 3.45609 10.5435 0.583252 6.99967 0.583252ZM9.7459 6.24532C9.97348 6.01729 9.97311 5.64794 9.74508 5.42036C9.51704 5.19278 9.1477 5.19315 8.92012 5.42119L6.41593 7.93038L5.07882 6.59327C4.85101 6.36547 4.48167 6.36547 4.25386 6.59327C4.02606 6.82108 4.02606 7.19042 4.25386 7.41823L6.00386 9.16823C6.11333 9.2777 6.26182 9.33916 6.41663 9.33909C6.57144 9.33901 6.71987 9.2774 6.82923 9.16782L9.7459 6.24532Z" fill="#20B26C"/>
    </g>
    <defs>
        <clipPath id="clip0_17012_232197">
            <rect width="14" height="14" fill="white"/>
        </clipPath>
    </defs>
</svg>